<?xml version="1.0" encoding="UTF-8" standalone="no"?>
<svg
   xmlns:dc="http://purl.org/dc/elements/1.1/"
   xmlns:cc="http://creativecommons.org/ns#"
   xmlns:rdf="http://www.w3.org/1999/02/22-rdf-syntax-ns#"
   xmlns:svg="http://www.w3.org/2000/svg"
   xmlns="http://www.w3.org/2000/svg"
   xmlns:sodipodi="http://sodipodi.sourceforge.net/DTD/sodipodi-0.dtd"
   xmlns:inkscape="http://www.inkscape.org/namespaces/inkscape"
   width="78mm"
   height="48mm"
   viewBox="-78 -8 294.80315 181.41733"
   version="1.1"
   id="svg6"
   sodipodi:docname="anavi-door-opener.svg"
   inkscape:version="0.92.3 (2405546, 2018-03-11)">
  <metadata
     id="metadata12">
    <rdf:RDF>
      <cc:Work
         rdf:about="">
        <dc:format>image/svg+xml</dc:format>
        <dc:type
           rdf:resource="http://purl.org/dc/dcmitype/StillImage" />
        <dc:title>OpenSCAD Model</dc:title>
      </cc:Work>
    </rdf:RDF>
  </metadata>
  <defs
     id="defs10" />
  <sodipodi:namedview
     pagecolor="#ffffff"
     bordercolor="#666666"
     borderopacity="1"
     objecttolerance="10"
     gridtolerance="10"
     guidetolerance="10"
     inkscape:pageopacity="0"
     inkscape:pageshadow="2"
     inkscape:window-width="1837"
     inkscape:window-height="1018"
     id="namedview8"
     showgrid="false"
     inkscape:zoom="1.7383042"
     inkscape:cx="93.461553"
     inkscape:cy="45.425402"
     inkscape:window-x="83"
     inkscape:window-y="34"
     inkscape:window-maximized="1"
     inkscape:current-layer="svg6"
     units="mm" />
  <title
     id="title2">OpenSCAD Model</title>
  <path
     d="m 15.248007,-3.8131857 -1.754143,5.3885278 -2.416703,5.126587 -3.0415943,4.7838499 -3.6182733,4.365542 -4.13769855,3.878543 -4.59233695,3.330223 -4.9739016,2.729492 -5.2778723,2.085751 -5.497848,1.409073 -5.631563,0.710102 h -5.676388 l -5.631564,-0.710102 -5.497847,-1.409073 -5.277497,-2.085751 -4.974277,-2.729492 -0.632803,-0.458877 h -6.463624 l -2.346642,0.295892 -2.290895,0.587045 -2.198988,0.8691 -2.072428,1.137283 -1.913474,1.387643 -1.724009,1.616009 -1.507802,1.818998 -1.267112,1.993223 -1.00721,2.136094 -0.730736,2.245238 -0.443339,2.31893 -0.148406,2.356075 v 112.79209 l 0.148406,2.35622 0.443339,2.31864 0.730736,2.24532 1.00721,2.13628 1.267112,1.99303 1.507802,1.81896 1.724009,1.61631 1.913474,1.38735 2.072428,1.13731 2.198988,0.86925 2.290895,0.5869 2.346642,0.29589 h 3.893995 l 6.159275,-4.46657 7.461417,-4.09435 7.916433,-3.12847 8.247147,-2.11373 8.447159,-1.06513 h 8.5142042 l 8.44753448,1.06513 8.24677042,2.11373 7.9164329,3.12847 7.461417,4.09435 6.159276,4.46657 H 189.97253 l 26.32959,-26.28092 V 30.083535 l -0.0595,-0.942415 -0.17724,-0.927602 -0.29237,-0.898051 -0.40279,-0.854437 -0.50693,-0.79729 -0.60304,-0.727583 -0.68964,-0.646412 -0.76539,-0.555049 -0.82901,-0.454928 -0.8796,-0.3474 -0.91632,-0.234983 -0.93857,-0.118432 h -31.07954 l -0.93866,0.118432 -0.91606,0.234983 -0.87951,0.3474 -0.82905,0.454928 -0.76539,0.555049 -0.68968,0.646412 -0.60305,0.727583 -0.50699,0.79729 -0.40266,0.854437 -0.29267,0.898051 -0.17704,0.927602 -0.0595,0.942415 v 15.038941 l 0.0595,0.942416 0.17704,0.927601 0.29267,0.898051 0.40266,0.854436 0.50699,0.797329 0.60305,0.727546 0.68968,0.646448 0.76539,0.555012 0.82905,0.454966 0.87951,0.347775 0.91606,0.234984 0.93866,0.118431 h 8.00645 v 71.449859 l -0.14851,2.35623 -0.4432,2.31863 -0.73084,2.2453 -1.00702,2.13629 -1.26734,1.99304 -1.50754,1.81896 -1.72409,1.6163 -1.91354,1.38735 -2.07243,1.13732 -2.19899,0.86925 -2.29089,0.58689 -2.34665,0.2959 H 53.152489 l -2.346641,-0.2959 -2.290896,-0.58689 -2.198987,-0.86925 -2.072429,-1.13732 -1.913474,-1.38735 -1.724008,-1.6163 -1.507803,-1.81896 -1.267111,-1.99304 -1.00721,-2.13629 -0.730738,-2.2453 -0.443338,-2.31863 -0.148405,-2.35623 V 52.627471 h 8.006455 l 0.938657,-0.118431 0.916057,-0.234984 0.879519,-0.347775 0.829047,-0.454966 0.765389,-0.555012 0.689678,-0.646448 0.603047,-0.727546 0.506995,-0.797329 0.402658,-0.854436 0.292672,-0.898051 0.177034,-0.927601 0.05952,-0.942416 V 0.00565261 L 50.508657,-0.93676268 50.331623,-1.8643646 50.038951,-2.762415 49.636293,-3.6168524 49.129298,-4.4141794 48.526251,-5.1417258 47.836573,-5.7881746 47.071184,-6.3431868 46.242137,-6.7981523 45.362618,-7.1455519 44.446561,-7.3805353 43.507904,-7.4989669 H 15.952376 Z m -77.207158,154.2229457 0.938657,0.11844 0.916057,0.23498 0.879896,0.34739 0.829046,0.45493 0.76539,0.55532 0.689303,0.6463 0.603045,0.72751 0.506995,0.79743 0.403035,0.85421 0.292294,0.8982 0.177034,0.92753 0.05952,0.94258 -0.05952,0.94256 -0.177034,0.92753 -0.292294,0.89782 -0.403035,0.85459 -0.506995,0.79744 -0.603045,0.7275 -0.689303,0.6463 -0.76539,0.55494 -0.829046,0.45492 -0.879896,0.34778 -0.916057,0.23498 -0.938657,0.11806 h -0.94619 l -0.938657,-0.11806 -0.916057,-0.23498 -0.87952,-0.34778 -0.829046,-0.45492 -0.76539,-0.55494 -0.689679,-0.6463 -0.603046,-0.7275 -0.506994,-0.79744 -0.402659,-0.85459 -0.292671,-0.89782 -0.177034,-0.92753 -0.05952,-0.94256 0.05952,-0.94258 0.177034,-0.92753 0.292671,-0.8982 0.402659,-0.85421 0.506994,-0.79743 0.603046,-0.72751 0.689679,-0.6463 0.76539,-0.55532 0.829046,-0.45493 0.87952,-0.34739 0.916057,-0.23498 0.938657,-0.11844 z m 40.031903,-105.198291 5.631565,0.710102 5.497846,1.409035 5.2778738,2.085751 4.97390167,2.729531 4.59233693,3.33026 4.1376985,3.878543 3.6182731,4.365729 3.041594,4.783511 2.416703,5.126776 1.754143,5.388452 1.06371,5.565536 0.356328,5.654642 -0.356328,5.654642 -1.06371,5.565531 -1.754143,5.38846 -2.416703,5.1264 -3.041594,4.78388 -3.6182731,4.3658 -4.1376985,3.87855 -4.59233693,3.33 -4.97390167,2.72957 -5.2778738,2.0859 -5.497846,1.40877 -5.631565,0.71022 h -5.676386 l -5.631565,-0.71022 -5.497847,-1.40877 -5.277495,-2.0859 -4.974279,-2.72957 -4.592337,-3.33 -4.137698,-3.87855 -3.618273,-4.3658 -3.041596,-4.78388 -2.416701,-5.1264 -1.754144,-5.38846 -1.06371,-5.565531 -0.356328,-5.654642 0.356328,-5.654642 1.06371,-5.565536 1.754144,-5.388452 2.416701,-5.126776 3.041596,-4.783511 3.618273,-4.365729 4.137698,-3.878543 4.592337,-3.33026 4.974279,-2.729531 5.277495,-2.085751 5.497847,-1.409035 5.631565,-0.710102 z m -40.031903,-15.113121 0.938657,0.118432 0.916057,0.234983 0.879896,0.347776 0.829046,0.454928 0.76539,0.55505 0.689303,0.646448 0.603045,0.727547 0.506995,0.79729 0.403035,0.854475 0.292294,0.89805 0.177034,0.927602 0.05952,0.942453 -0.05952,0.942415 -0.177034,0.927601 -0.292294,0.898051 -0.403035,0.854438 -0.506995,0.797327 -0.603045,0.727546 -0.689303,0.646449 -0.76539,0.555012 -0.829046,0.454965 -0.879896,0.347776 -0.916057,0.234984 -0.938657,0.118431 h -0.94619 l -0.938657,-0.118431 -0.916057,-0.234984 -0.87952,-0.347776 -0.829046,-0.454965 -0.76539,-0.555012 -0.689679,-0.646449 -0.603046,-0.727546 -0.506994,-0.797327 -0.402659,-0.854438 -0.292671,-0.898051 -0.177034,-0.927601 -0.05952,-0.942415 0.05952,-0.942453 0.177034,-0.927602 0.292671,-0.89805 0.402659,-0.854475 0.506994,-0.79729 0.603046,-0.727547 0.689679,-0.646448 0.76539,-0.55505 0.829046,-0.454928 0.87952,-0.347776 0.916057,-0.234983 0.938657,-0.118432 z"
     id="path4"
     style="fill:none;stroke:#000000;stroke-width:1.00206423;stroke-miterlimit:4;stroke-dasharray:none"
     inkscape:connector-curvature="0" />
</svg>
